<?xml version="1.0" encoding="UTF-8" standalone="no"?><!DOCTYPE svg PUBLIC "-//W3C//DTD SVG 1.1//EN" "http://www.w3.org/Graphics/SVG/1.1/DTD/svg11.dtd"><svg width="100%" height="100%" viewBox="0 0 1637 2893" version="1.1" xmlns="http://www.w3.org/2000/svg" xmlns:xlink="http://www.w3.org/1999/xlink" xml:space="preserve" xmlns:serif="http://www.serif.com/" style="fill-rule:evenodd;clip-rule:evenodd;stroke-linejoin:round;stroke-miterlimit:2;"><rect id="Artboard1" x="0" y="0" width="1636.44" height="2892.15" style="fill:none;"/><clipPath id="_clip1"><rect x="0" y="0" width="1636.44" height="2892.15"/></clipPath><g clip-path="url(#_clip1)"><g><path d="M1227.19,1298.94l-252.009,0c-1.348,3 -2.956,5.901 -4.944,8.659c-1.982,2.758 -3.348,5.945 -5.137,8.846c-1.268,2.056 -1.404,3.969 -0.367,6.162c2.125,4.51 2.398,9.2 0.938,13.977c-0.528,1.727 -1.217,3.385 -2.789,4.404c-1.36,0.882 -2.168,2.193 -2.528,3.609c-0.969,3.833 -2.342,7.715 -2.355,11.585c-0.012,3.709 -0.801,6.976 -2.167,10.269c-0.994,2.391 -1.945,4.702 -1.106,7.491c0.447,1.478 0.23,3.305 -0.149,4.858c-1.019,4.149 -1.274,8.336 -1.174,12.566c0.056,2.404 -0.435,4.591 -2.075,6.461c-1.211,1.391 -1.739,3.043 -1.603,4.919c0.062,0.802 0.131,1.703 -0.155,2.423c-1.205,3 -0.957,5.46 1.876,7.529c1.497,1.093 1.162,2.913 0.807,4.572c-0.838,3.864 -1.559,7.758 -2.484,11.604c-0.429,1.789 -0.454,3.497 -0.056,5.255c1.484,6.51 2.975,12.989 5.46,19.25c1.379,3.479 2.404,7.268 2.398,11.132c-0.006,2.758 0.447,5.429 0.907,8.125c0.459,2.684 0.888,5.293 2.826,7.485c1.286,1.454 1.423,3.529 1.472,5.454c0.044,1.901 -0.074,3.821 -0.155,5.728c-0.118,2.764 0.099,5.392 1.634,7.883c1.54,2.497 1.95,5.373 1.665,8.299c-0.398,4.081 -0.609,8.181 -1.566,12.181c-0.428,1.795 -0.317,3.522 0.292,5.237c0.839,2.36 1.062,4.795 0.938,7.274c-0.422,8.721 -0.36,17.486 -2.18,26.096c-0.311,1.491 -0.354,2.901 0.466,4.342c6.05,10.703 9.411,22.692 15.914,33.19c2.293,3.708 4.392,7.541 6.691,11.249c0.633,1.019 1.546,1.945 2.515,2.665c4.709,3.454 8.026,8.144 11.424,12.747c3.808,5.162 7.454,10.43 12.523,14.53c1.671,1.354 3.025,3.137 4.442,4.795c0.608,0.708 1.205,1.541 1.49,2.423c3.044,9.429 6.753,18.635 9.679,28.108c2.9,9.393 5.901,18.748 8.839,28.128c0.41,1.304 0.863,2.615 1.037,3.957c0.205,1.609 0.752,2.888 2.249,3.627c1.677,0.839 2.559,2.398 3.535,3.883c7.876,12.007 14.678,24.63 20.611,37.681c2,4.392 4.863,8.082 7.423,12.014c7.466,11.485 13.486,23.729 19.443,36.016c0.789,1.634 1.466,3.212 0.422,5.038c-0.695,1.205 -0.037,2.149 1.031,2.696c2.137,1.081 3.05,3.093 3.908,5.081c8.137,18.946 15.977,38.004 22.58,57.553c1.441,4.28 2.367,8.492 5.659,12.157c4.199,4.671 4.733,10.926 4.013,17.057c-0.305,2.628 -1.659,5.038 -1.671,7.858c-0.013,2.044 -2.013,3.131 -3.914,3.734c-3.808,1.199 -7.746,1.528 -11.703,1.683c-19.499,0.777 -39.004,0.839 -58.516,0.957c-29.742,0.186 -59.484,0.702 -89.221,0.919c-19.648,0.143 -39.296,-0.025 -58.944,0.019c-13.921,0.025 -27.841,0.366 -41.75,0.199c-15.828,-0.193 -31.649,-0.181 -47.483,-0.609c-32.066,-0 -64.131,0.112 -96.203,-0.031c-22.506,-0.106 -45.005,-0.497 -67.511,-0.87c-28.369,-0.478 -56.745,-1.006 -85.115,-1.646c-16.368,-0.373 -32.73,-1.006 -49.092,-1.553c-1.354,-0.05 -2.708,-0.304 -4.063,-0.472c-4.901,-0.609 -5.106,-0.783 -5.957,-5.516c-0.167,-0.969 -0.54,-1.82 -1.018,-2.659c-0.628,-1.099 -0.851,-2.311 -0.702,-3.559c0.919,-7.722 2.584,-15.12 8.994,-20.406c0.721,-0.59 1.032,-1.168 0.864,-2.081c-0.497,-2.789 0.255,-5.461 1.006,-8.069c5.603,-19.586 12.908,-38.564 20.474,-57.448c0.56,-1.391 1.268,-2.708 2.33,-3.826c1.118,-1.168 1.578,-2.429 0.59,-4.032c-0.882,-1.435 -0.242,-2.913 0.416,-4.286c6.429,-13.467 14.051,-26.226 22.462,-38.538c1.174,-1.721 2.926,-2.783 4.187,-4.417c2.87,-3.696 4.249,-8.125 6.386,-12.175c5.379,-10.163 11.635,-19.76 17.847,-29.401c0.441,-0.683 0.938,-1.702 1.553,-1.832c3.652,-0.733 3.422,-3.703 4.18,-6.361c2.51,-8.79 5.243,-17.518 7.995,-26.239c2.907,-9.243 5.92,-18.456 8.926,-27.668c0.305,-0.919 0.503,-1.789 0.479,-2.777c-0.056,-1.994 0.695,-4.143 2.074,-5.18c4.255,-3.199 4.752,-8.902 8.666,-12.244c0.441,-0.385 0.596,-1.23 0.677,-1.894c0.627,-5.069 3.124,-9.256 6.218,-13.139c0.82,-1.018 1.099,-2.099 1.385,-3.31c1.907,-8.101 2.659,-16.468 5.491,-24.351c2.721,-7.56 4.131,-15.486 7.051,-23.027c2.634,-6.79 5.094,-13.791 5.771,-21.183c0.254,-2.826 1.46,-5.199 3.255,-7.367c3.913,-4.709 5.187,-10.088 3.833,-16.089c-0.522,-2.323 -0.187,-4.572 0.546,-6.845c1.031,-3.218 2.131,-6.374 1.255,-9.976c-0.69,-2.87 1.025,-5.399 3.081,-7.231c3.951,-3.516 5.628,-8.293 7.734,-12.865c0.472,-1.037 0.577,-2.106 0.323,-3.199c-1.261,-5.46 -0.833,-11.163 -2.473,-16.567c-0.279,-0.925 -0.391,-1.981 0.063,-2.82c1.615,-2.945 0.31,-5.485 -1.485,-7.473c-6.119,-6.783 -6.504,-15.076 -6.33,-23.419c0.218,-10.696 2.578,-21.108 5.025,-31.481c0.386,-1.609 0.566,-3.181 0.032,-4.833c-1.237,-3.864 -1.305,-7.815 -0.23,-11.71c1.565,-5.696 0.82,-11.032 -1.901,-16.213c-1.777,-3.385 -1.938,-7.131 -1.597,-10.814c0.535,-5.728 -0.615,-11.175 -2.404,-16.493c-1.59,-4.715 -2.491,-9.492 -2.609,-14.442c-0.093,-3.97 -0.534,-7.889 -1.236,-11.803c-0.484,-2.683 -0.931,-5.423 -0.925,-8.137c-0,-1.025 -0.006,-2.057 -0.025,-3.088l-247.679,0c-226.019,0 -409.244,183.381 -409.244,409.585l0,409.592c0,226.204 183.219,409.585 409.244,409.585l818.487,-0c226.018,-0 409.243,-183.381 409.243,-409.585c-0,-226.211 -183.225,-409.592 -409.243,-409.592l409.243,0c-0,-226.204 -183.225,-409.585 -409.243,-409.585l-0.007,0.025Zm-581.927,802.373l-89.382,0l0,48.366l71.964,-0l-18.877,52.204l-53.087,0l0,86.289l-73.753,0l-0,-238.902l181.945,0l-18.816,52.05l0.006,-0.007Zm115.131,186.853l-73.747,0l-0.013,-238.902l73.76,0l0,238.902Zm124.498,-86.283l0,86.283l-73.76,0l0,-238.902l181.952,0l-18.816,52.049l-89.382,0l-0,48.366l71.958,-0l-18.878,52.204l-53.08,0l0.006,0Zm244.865,86.283l-9.634,-32.09l-83.339,-0l-9.212,32.09l-72.623,0l86.327,-238.902l76.673,0l86.282,238.902l-74.474,0Zm97.433,-2288.17l-818.487,-0c-226.018,-0 -409.243,183.374 -409.243,409.585l409.243,0c-226.018,0 -409.243,183.374 -409.243,409.591l-0,409.586l653.829,-0c-0.31,-0.895 -0.64,-1.783 -1,-2.665c-2.149,-5.324 -1.627,-10.989 0.335,-16.425c0.386,-1.056 1.131,-1.981 2.156,-2.366c2.354,-0.889 2.534,-2.671 2.075,-4.672c-1.771,-7.839 -3.404,-15.678 -8.784,-22.176c-2.23,-2.696 -3.677,-6.044 -5.404,-9.138c-3.348,-5.963 -6.964,-11.728 -11.542,-16.852c-3.211,-3.591 -5.267,-7.678 -6.777,-12.393c-2.006,-6.262 -4.702,-12.467 -11.107,-16.033c-4.056,-2.255 -4.41,-3.609 -3.168,-8.106c0.684,-2.473 0.087,-4.715 -1.037,-6.69c-2.503,-4.374 -4.417,-9.057 -7.454,-13.163c-2.044,-2.771 -1.485,-6.281 -0.907,-9.492c0.913,-5.088 0.863,-9.827 -1.945,-14.542c-3.012,-5.081 -4.509,-10.889 -5.267,-16.71c-0.758,-5.858 -2.994,-11.312 -4.019,-17.033c-1.864,-10.386 -6.349,-20.014 -8.206,-30.376c-0.46,-2.584 -0.746,-5.137 -0.131,-7.709c0.193,-0.814 0.292,-1.547 0.081,-2.391c-1.696,-6.61 -3.087,-13.281 -4.118,-20.027c-0.205,-1.33 -0.622,-2.678 -1.181,-3.908c-2.509,-5.534 -3.168,-11.566 -4.764,-17.343c-0.627,-2.261 -0.634,-4.671 0.031,-6.908c0.671,-2.217 0.478,-4.236 -0.13,-6.392c-0.665,-2.366 -0.802,-4.833 -0.994,-7.292c-0.603,-7.579 -0.665,-15.251 -3.193,-22.562c-0.777,-2.23 -0.665,-4.423 -0.224,-6.808c0.615,-3.323 0.416,-6.808 -1.031,-10.02c-0.832,-1.832 -1.218,-3.615 -0.186,-5.485c0.41,-0.739 0.509,-1.516 0.354,-2.367c-1.205,-6.435 -2.007,-12.982 -5.1,-18.902c-1.106,-2.119 -1.578,-4.38 -1.305,-6.74c0.472,-4.019 -0.025,-8.026 1.199,-12.126c0.994,-3.311 0.528,-7.355 -1.708,-10.616c-3.41,-4.988 -5.491,-10.535 -7.684,-16.157c-3.529,-9.057 -6.044,-18.393 -9.181,-27.537c-1.584,-4.615 -2.87,-9.392 -5.007,-13.828c-0.292,-0.608 -0.609,-1.279 -0.64,-1.931c-0.23,-4.746 -2.311,-8.908 -4,-13.201c-0.05,-0.13 -0.025,-0.285 -0.087,-0.397c-4.349,-7.591 -4.628,-16.729 -9.144,-24.226c-3.355,-5.566 -5.088,-11.735 -7.162,-17.797c-0.976,-2.858 -1.504,-5.809 -2.255,-8.709c-1.118,-4.355 -2.206,-8.691 -4.386,-12.722c-1.851,-3.423 -2.379,-7.293 -1.714,-11.144c0.379,-2.175 0.161,-4.374 0.652,-6.51c0.279,-1.193 -0.187,-2.144 -0.857,-3.032c-2.28,-2.975 -2.23,-6.336 -1.578,-9.777c0.13,-0.677 0.242,-1.361 0.466,-1.994c1.559,-4.299 1.546,-8.666 1.484,-13.219c-0.143,-11.182 0.503,-22.369 1.839,-33.488c0.671,-5.579 6.634,-9.486 12.268,-8.306c1.33,0.28 2.665,0.603 4.013,0.659c2.876,0.124 3.653,-0.82 3.249,-3.684c-0.503,-3.503 -1.05,-7.007 -1.534,-10.523c-1.553,-11.156 -0.77,-22.331 -0.255,-33.513c0.106,-2.366 0.882,-4.783 -2.249,-6.224c-1.584,-0.727 -1.143,-2.926 -1.087,-4.528c0.205,-6.293 1.081,-12.53 2.249,-18.698c8.846,-46.75 25.295,-90.625 49.981,-131.331c6.535,-10.771 13.902,-20.928 22.847,-29.861c0.677,-0.677 1.255,-1.695 2.068,-1.944c3.92,-1.205 5.2,-4.901 7.492,-7.622c1.143,-1.36 2.336,-2.634 3.677,-3.82c4.69,-4.143 8.716,-8.889 12.306,-14.033c1.391,-1.987 3.292,-3.64 5.069,-5.336c36.787,-35.302 80.698,-57.273 129.859,-69.281c12.747,-3.112 25.835,-4.174 38.886,-5.255c9.392,-0.776 18.791,-1.081 28.214,-1.043c14.921,0.068 29.656,1.913 44.353,4.261c19.288,3.081 38.352,7.131 56.708,13.927c31.867,11.796 61.193,28.102 87.146,50.198c10.219,8.703 19.418,18.418 27.475,29.171c2.982,3.988 6.299,7.759 8.622,12.219c0.441,0.844 1.417,1.739 1.305,2.491c-0.572,3.82 2.348,4.584 4.783,5.379c2.224,0.721 3.733,2.075 5.187,3.715c6.435,7.268 11.858,15.331 17.958,22.866c1.268,1.565 2.634,3.311 0.379,5.311c-0.646,0.571 0.019,1.298 0.485,1.745c7.044,6.933 10.746,16.07 15.809,24.282c3.715,6.02 6.442,12.617 8.995,19.27c2.534,6.615 4.683,13.374 7.615,19.859c3.957,8.752 5.852,18.151 7.871,27.494c1.733,8 3.652,15.964 5.696,23.89c1.354,5.249 3.541,5.796 7.467,1.833c2.199,-2.218 4.367,-4.454 6.597,-6.641c1.95,-1.913 4.069,-3.615 5.994,-5.534c1.733,-1.721 3.671,-1.696 5.634,-0.634c2.789,1.51 4.802,3.665 4.566,7.113c-0.137,1.969 0.099,3.801 1.013,5.547c0.844,1.615 1.043,3.391 1.161,5.168c0.156,2.448 0.224,4.914 0.305,7.374c0.118,3.342 0.049,6.435 2.876,9.28c3.298,3.33 3.988,7.976 3.05,12.666c-0.336,1.659 -0.41,3.224 0.577,4.715c0.299,0.441 0.603,1.037 0.541,1.522c-0.572,4.739 2,8.889 2.46,13.43c0.23,2.28 0.671,4.447 1.559,6.671c1.572,3.939 -0.025,7.846 -1.826,11.387c-4.995,9.79 -8.188,20.244 -10.952,30.773c-1.82,6.945 -2.41,14.263 -3.1,21.456c-1.459,15.275 -5.143,30.103 -8.522,44.992c-0.149,0.665 -0.329,1.342 -0.628,1.945c-4.186,8.454 -6.628,17.61 -10.641,26.127c-1.459,3.112 -3.584,5.802 -5.982,8.262c-2.546,2.602 -3.472,5.603 -3.18,9.274c0.677,8.429 0.584,16.896 1.528,25.332c0.466,4.156 -0.565,8.398 -1.298,12.585c-2.224,12.56 -6.535,24.525 -10.883,36.402c-1.988,5.423 -3.286,11.181 -6.324,16.281c-2.708,4.541 -4.895,9.398 -7.374,14.082c-0.515,0.982 -0.944,1.951 -1.08,3.056c-0.789,6.411 -2.908,12.542 -4.989,18.537c-2.82,8.125 -5.472,16.219 -7.199,24.648c-0.596,2.945 -1.963,5.703 -4.535,7.585c-0.807,0.59 -1.292,1.404 -1.683,2.273c-2.472,5.622 -5.019,11.213 -7.361,16.891c-1.236,2.994 -2.522,6.019 -1.895,9.473c0.298,1.652 -0.385,3.292 -1.385,4.615c-3.653,4.833 -4.566,10.722 -6.442,16.238c-0.745,2.193 -1.273,4.466 -1.776,6.727c-0.615,2.771 -1.646,5.436 -1.162,8.442c0.298,1.858 -0.385,3.845 -1.261,5.529c-2.752,5.292 -3.162,11.038 -3.013,16.747c0.205,7.796 -1.428,15.151 -3.963,22.406c-2.683,7.659 -4.118,15.53 -4.013,23.661c0.019,1.373 -0.049,2.733 -0.068,4.1c-0.031,3.715 -1.683,6.491 -4.709,8.597c-2.702,1.888 -3.261,2.597 -1.845,5.305c3.665,7.032 0.889,13.169 -1.863,19.474c-1.466,3.361 -2.839,6.771 -2.889,10.573c-0.037,3.199 -1.577,6.168 -2.888,8.839c-4.293,8.759 -5.206,18.338 -7.703,27.525c-0.18,0.658 -0.223,1.373 -0.497,1.988c-3.59,8.063 -4.621,16.797 -6.609,25.276c-0.826,3.528 -2.125,6.752 -4.075,9.752c-2.783,4.287 -4.361,9.045 -5.87,13.89c-2.112,6.765 -4.871,13.331 -6.939,20.108c-2.808,9.181 -7.249,17.66 -10.771,26.531c-0.025,0.068 -0.05,0.13 -0.075,0.199l643.337,-0l0,-409.592l-409.243,0c226.025,0 409.243,-183.374 409.243,-409.585c0,-226.211 -183.218,-409.585 -409.243,-409.585l0.012,-0.031Zm-177.236,2210.17l57.969,0l-29.476,-99.526l-28.493,99.526Z" style="fill:#01362d;fill-rule:nonzero;"/></g><path d="M80.179,2887.76c-6.816,-0 -12.658,-1.966 -17.527,-5.898c-4.868,-3.932 -8.207,-9.527 -10.015,-16.634l-46.877,-176.628l63.847,0l33.663,153.793l33.384,-153.793l62.317,0l-53.136,199.16l-65.656,-0Zm137.571,-181.013c1.391,-5.746 4.034,-10.132 7.789,-13.156c3.895,-3.327 8.764,-4.991 14.328,-4.991l72.611,0l51.189,199.16l-63.291,-0l-7.234,-32.816l-52.023,0l-6.955,32.816l-63.013,-0l46.599,-181.013Zm65.934,105.099l-16.692,-76.82l-16.414,76.82l33.106,0Zm90.972,-102.831c-0,-6.502 1.669,-11.492 4.868,-14.971c3.478,-3.78 8.068,-5.595 14.049,-5.595l58.005,0l39.644,117.197l0,-117.197l56.058,0l-0,199.159l-74.697,0l-40.896,-123.397l-0,123.397l-56.892,0l-0,-178.593l-0.139,0Zm275.976,183.13c-29.35,-0 -51.189,-5.898 -65.795,-17.542c-14.605,-11.946 -21.839,-31 -21.839,-57.464l0,-55.045c0,-26.615 7.373,-46.122 22.117,-58.825c14.745,-12.703 36.584,-19.054 65.517,-19.054c28.376,0 49.659,5.444 63.847,16.332c14.188,10.888 21.839,27.825 22.952,50.659l-0,7.864l-61.483,-0l-0.278,-9.981c-0.556,-12.854 -8.902,-19.356 -25.038,-19.356c-8.764,-0 -15.301,2.419 -19.335,7.107c-4.173,4.688 -6.26,11.039 -6.26,19.054l0,65.026c0,16.936 8.485,25.556 25.317,25.556c8.485,0 14.883,-1.966 19.196,-5.898c4.451,-3.931 6.676,-10.132 6.676,-18.751l0,-23.44l61.9,0l0,17.845c-0.695,25.859 -8.346,44.913 -22.951,57.464c-14.328,12.249 -35.888,18.449 -64.543,18.449Zm187.647,0c-29.35,0 -51.189,-5.898 -65.795,-17.542c-14.605,-11.946 -21.839,-31 -21.839,-57.464l0,-57.918c0,-26.313 7.234,-45.367 21.839,-57.162c14.606,-11.946 36.445,-17.844 65.795,-17.844c29.35,0 51.189,5.898 65.795,17.844c14.605,11.795 21.839,30.698 21.839,57.162l-0,57.918c-0,26.313 -7.234,45.518 -21.839,57.464c-14.606,11.644 -36.584,17.542 -65.795,17.542Zm-0,-45.669c17.109,0 25.595,-7.864 25.595,-23.439l-0,-69.714c-0,-15.575 -8.486,-23.439 -25.595,-23.439c-17.109,-0 -25.595,7.864 -25.595,23.439l0,69.714c0,15.575 8.486,23.439 25.595,23.439Zm184.865,45.669c-55.918,0 -83.739,-23.591 -83.739,-70.923l0,-132.773l61.205,0l-0,135.949c-0,7.863 1.947,13.307 5.703,16.634c3.895,3.176 9.737,4.688 17.527,4.688c7.511,-0 13.214,-1.512 16.97,-4.688c3.756,-3.327 5.703,-8.922 5.703,-16.634l0,-135.949l60.926,0l0,132.773c0,24.649 -7.233,42.493 -21.56,53.835c-14.606,11.493 -35.471,17.088 -62.735,17.088Zm165.669,-4.385c-6.816,-0 -12.658,-1.966 -17.526,-5.898c-4.869,-3.932 -8.207,-9.527 -10.016,-16.634l-46.877,-176.628l63.848,0l33.662,153.793l33.384,-153.793l62.317,0l-53.136,199.16l-65.656,-0Zm125.33,-174.359c0,-7.864 1.948,-13.913 5.982,-18.147c4.173,-4.536 9.737,-6.654 16.97,-6.654l114.48,0l-0,48.845l-77.062,0l-0,28.43l67.603,-0l0,45.064l-67.603,-0l-0,27.825l77.062,-0l-0,48.844l-137.432,0l0,-174.207Zm154.263,-24.801l100.014,0c22.812,0 39.226,3.932 49.102,11.796c10.016,7.863 15.162,21.02 15.162,39.469l0,7.258c0,14.215 -3.199,24.498 -9.737,30.698c-6.259,6.2 -15.301,10.132 -26.985,11.796l1.391,-0c13.632,0.151 23.508,3.478 29.628,9.98c6.26,6.503 9.459,16.181 9.459,29.337l-0,58.826l-49.242,-0c-4.173,-0 -7.372,-1.21 -9.737,-3.479c-2.086,-2.57 -3.199,-5.897 -3.199,-10.283l-0,-40.678c-0,-4.234 -1.113,-7.41 -3.199,-9.376c-1.948,-2.117 -5.008,-3.176 -9.181,-3.176l-31.854,0l-0,67.143l-61.622,-0l0,-199.311Zm88.886,88.465c8.207,0 12.38,-3.629 12.38,-10.888l-0,-21.473c-0,-6.805 -4.173,-10.283 -12.38,-10.283l-27.542,-0l-0,42.493l27.542,-0l-0,0.151Z" style="fill:#01362d;fill-rule:nonzero;"/></g></svg>